<svg xmlns="http://www.w3.org/2000/svg" width="1024" height="512" viewBox="0 0 1024 512">
  <rect width="1024" height="512" fill="#000"/>
  <g fill="#fff">
    <circle cx="34" cy="58" r="1" opacity="0.8"/>
    <circle cx="98" cy="140" r="1" opacity="0.55"/>
    <circle cx="170" cy="88" r="1.2" opacity="0.9"/>
    <circle cx="240" cy="210" r="1" opacity="0.65"/>
    <circle cx="310" cy="34" r="0.9" opacity="0.5"/>
    <circle cx="420" cy="120" r="1" opacity="0.75"/>
    <circle cx="520" cy="64" r="1.4" opacity="0.95"/>
    <circle cx="610" cy="190" r="1" opacity="0.6"/>
    <circle cx="720" cy="40" r="1" opacity="0.7"/>
    <circle cx="820" cy="140" r="1.1" opacity="0.85"/>
    <circle cx="940" cy="80" r="1" opacity="0.55"/>
    <circle cx="120" cy="340" r="1" opacity="0.6"/>
    <circle cx="220" cy="460" r="1.3" opacity="0.95"/>
    <circle cx="360" cy="380" r="1" opacity="0.55"/>
    <circle cx="480" cy="450" r="1" opacity="0.6"/>
    <circle cx="640" cy="360" r="1.2" opacity="0.9"/>
    <circle cx="760" cy="420" r="1" opacity="0.7"/>
    <circle cx="880" cy="340" r="1" opacity="0.6"/>
    <circle cx="980" cy="470" r="1.3" opacity="0.95"/>
  </g>
  <g fill="#cfe8ff" opacity="0.5">
    <circle cx="150" cy="260" r="1"/>
    <circle cx="560" cy="270" r="1"/>
    <circle cx="910" cy="240" r="1"/>
  </g>
  <g fill="#fff" opacity="0.18">
    <circle cx="60" cy="300" r="2"/>
    <circle cx="300" cy="300" r="2"/>
    <circle cx="860" cy="210" r="2"/>
  </g>
</svg>
